Coordinates
version=1
nRows=15
nColumns=46
inDegrees=yes

Units are S.I. units (second, meters, Newtons, ...)
Angles are in degrees.

endheader
time	pelvis_tilt	pelvis_list	pelvis_rotation	pelvis_tx	pelvis_ty	pelvis_tz	bb_angle	bb_tx	bb_ty	bb_tz	hip_flexion_r	hip_adduction_r	hip_rotation_r	knee_angle_r	knee_angle_r_beta	ankle_angle_r	subtalar_angle_r	mtp_angle_r	crank_angle_r	hip_flexion_l	hip_adduction_l	hip_rotation_l	knee_angle_l	knee_angle_l_beta	ankle_angle_l	subtalar_angle_l	mtp_angle_l	crank_angle_l	lumbar_extension	lumbar_bending	lumbar_rotation	arm_flex_r	arm_add_r	arm_rot_r	elbow_flex_r	pro_sup_r	wrist_flex_r	wrist_dev_r	arm_flex_l	arm_add_l	arm_rot_l	elbow_flex_l	pro_sup_l	wrist_flex_l	wrist_dev_l
      7.50500000	    -33.42744033	      5.09612935	     14.58331130	      0.40306607	      1.05883473	     -0.23059296	      0.00000000	      0.50000000	      0.00000000	      0.25000000	     35.19062699	    -14.07290698	     -1.92043728	     28.57319509	      0.49869633	    -16.38683252	     -6.63327664	      0.00000000	      0.00000000	     87.60490233	      8.13071555	      4.65408572	    110.79896266	      1.93380671	     12.39698101	      2.10665880	      0.00000000	      0.00000000	    -52.87164900	     -3.06136152	    -15.06054920	     26.08389358	    -13.34707844	      8.14538732	     99.04922952	     52.23342250	      0.00000000	      0.00000000	     37.74946050	    -27.88963190	     16.10075841	    108.19375789	     51.38512770	      0.00000000	      0.00000000
      7.51000000	    -33.45759530	      4.80950022	     14.90009579	      0.40296304	      1.06016361	     -0.23127600	      0.00000000	      0.50000000	      0.00000000	      0.25000000	     35.11106798	    -13.95398555	     -2.11044450	     29.71679902	      0.51865599	    -16.49538083	     -6.81096331	      0.00000000	      0.00000000	     87.77209176	      8.27116535	      4.58947017	    109.66049909	      1.91393677	     13.24124632	      1.99358139	      0.00000000	      0.00000000	    -53.09847642	     -2.59086536	    -15.08957834	     26.22903875	    -13.16817679	      8.14035575	     99.02842359	     52.23208161	      0.00000000	      0.00000000	     37.83569925	    -27.90095648	     16.05306523	    108.36399896	     51.40328384	      0.00000000	      0.00000000
      7.51500000	    -33.56015651	      4.48514411	     15.29861635	      0.40245101	      1.06128962	     -0.23231233	      0.00000000	      0.50000000	      0.00000000	      0.25000000	     35.30529971	    -13.91948732	     -2.52946056	     31.27661862	      0.54587997	    -16.36922947	     -7.27638259	      0.00000000	      0.00000000	     87.90605851	      8.49839917	      4.46631018	    108.34659337	      1.89100479	     14.44227590	      1.96473374	      0.00000000	      0.00000000	    -53.28990906	     -1.99633866	    -15.30643591	     26.61334339	    -12.88340282	      8.05750926	     99.09827537	     52.23627287	      0.00000000	      0.00000000	     37.98821015	    -27.88969191	     15.95225164	    108.68703017	     51.43820352	      0.00000000	      0.00000000
      7.52000000	    -33.58256725	      4.18586357	     15.51421889	      0.40239914	      1.06257374	     -0.23290971	      0.00000000	      0.50000000	      0.00000000	      0.25000000	     35.51402289	    -13.76480537	     -2.66668740	     32.94347295	      0.57497207	    -16.13476676	     -7.50238165	      0.00000000	      0.00000000	     87.69430337	      8.58689955	      4.49855061	    106.85887833	      1.86503926	     15.93027192	      2.22598221	      0.00000000	      0.00000000	    -53.57423294	     -1.52549378	    -15.49492201	     26.99391891	    -12.31972089	      7.95761840	     99.10808962	     52.23676307	      0.00000000	      0.00000000	     37.87555218	    -28.13587555	     15.67900720	    109.27286893	     51.49625462	      0.00000000	      0.00000000
      7.52500000	    -33.36175312	      3.77492875	     15.41973721	      0.40277585	      1.06431799	     -0.23260407	      0.00000000	      0.50000000	      0.00000000	      0.25000000	     35.59124116	    -13.19857975	     -2.57588832	     34.58280125	      0.60358375	    -16.26338094	     -7.83530393	      0.00000000	      0.00000000	     87.04027373	      8.22464865	      4.60846205	    105.20700769	      1.83620868	     17.28368456	      2.17265564	      0.00000000	      0.00000000	    -54.08754236	     -1.19106143	    -15.26388305	     27.36769438	    -11.94175074	      7.95181841	     99.09913322	     52.23729240	      0.00000000	      0.00000000	     37.85340794	    -28.29710471	     15.49517008	    109.55714322	     51.51790024	      0.00000000	      0.00000000
      7.53000000	    -33.29497666	      3.43646401	     15.36706585	      0.40281529	      1.06586692	     -0.23282806	      0.00000000	      0.50000000	      0.00000000	      0.25000000	     35.96814766	    -12.80502716	     -2.35373132	     36.44519721	      0.63608869	    -16.42368274	     -8.18850146	      0.00000000	      0.00000000	     86.39529771	      8.04040178	      4.69127025	    103.30756096	      1.80305708	     18.71184529	      2.50712092	      0.00000000	      0.00000000	    -54.52982259	     -0.76034077	    -15.20752019	     27.91689650	    -11.44494728	      7.86694312	     99.08406718	     52.23314689	      0.00000000	      0.00000000	     37.76554143	    -28.57782539	     15.13469648	    110.13946312	     51.56601532	      0.00000000	      0.00000000
      7.53500000	    -33.11788291	      2.95413831	     15.24644170	      0.40289796	      1.06745692	     -0.23309278	      0.00000000	      0.50000000	      0.00000000	      0.25000000	     36.37083048	    -12.28615954	     -2.27111406	     38.42936692	      0.67071898	    -16.81756241	     -8.22554219	      0.00000000	      0.00000000	     85.55905439	      7.74821194	      4.89427868	    101.28135040	      1.76769304	     19.81434594	      2.32150632	      0.00000000	      0.00000000	    -54.86841217	     -0.29555396	    -14.77904741	     28.24090629	    -11.22820814	      7.89079396	     99.06204850	     52.23303819	      0.00000000	      0.00000000	     37.64930905	    -28.66456097	     14.99504949	    110.32949538	     51.58020765	      0.00000000	      0.00000000
      7.54000000	    -33.10218370	      2.67569125	     15.01493660	      0.40298032	      1.06877949	     -0.23333573	      0.00000000	      0.50000000	      0.00000000	      0.25000000	     37.11728085	    -11.95997857	     -2.03965274	     40.73089002	      0.71088814	    -16.79457640	     -8.35331716	      0.00000000	      0.00000000	     84.70639732	      7.38691659	      4.89345999	     99.11813950	      1.72993788	     21.17560080	      2.50536939	      0.00000000	      0.00000000	    -55.16563038	      0.11663992	    -15.79519789	     29.91552805	     -9.84592888	      8.80836677	     97.88516664	     52.22897627	      0.00000000	      0.00000000	     35.63598736	    -29.82605632	     12.63655191	    112.63125171	     51.62256604	      0.00000000	      0.00000000
      7.54500000	    -32.89586598	      2.16597126	     14.74447931	      0.40319903	      1.07024929	     -0.23332297	      0.00000000	      0.50000000	      0.00000000	      0.25000000	     37.69486990	    -11.32639423	     -1.88451895	     42.92087030	      0.74911050	    -17.16787990	     -8.36720663	      0.00000000	      0.00000000	     83.66452404	      6.85982924	      5.04366364	     96.85642182	      1.69046346	     21.99906258	      2.25837339	      0.00000000	      0.00000000	    -55.52951822	      0.53300333	    -15.18097126	     30.23825698	     -9.78374587	      8.87982897	     97.84110328	     52.20332905	      0.00000000	      0.00000000	     35.56097574	    -29.78685878	     12.55140583	    112.56410579	     51.58209638	      0.00000000	      0.00000000
      7.55000000	    -32.77414562	      1.82117752	     14.42483048	      0.40328190	      1.07163323	     -0.23349432	      0.00000000	      0.50000000	      0.00000000	      0.25000000	     38.48621532	    -10.86735777	     -1.65536929	     45.32465827	      0.79106452	    -17.42561734	     -8.58812187	      0.00000000	      0.00000000	     82.58488788	      6.43229508	      5.16330226	     94.44925545	      1.64845048	     22.88034130	      2.16084850	      0.00000000	      0.00000000	    -55.83726410	      0.78217425	    -14.75226805	     30.77007459	     -9.83465266	      8.91745641	     97.93207791	     52.19503491	      0.00000000	      0.00000000	     35.60660144	    -29.66181437	     12.37598706	    112.59861957	     51.54293795	      0.00000000	      0.00000000
      7.55500000	    -32.56659574	      1.52177800	     14.06001207	      0.40326172	      1.07291680	     -0.23369413	      0.00000000	      0.50000000	      0.00000000	      0.25000000	     39.28660345	    -10.44080881	     -1.38891491	     47.81729861	      0.83456930	    -17.78169589	     -8.65237866	      0.00000000	      0.00000000	     81.39182187	      5.92323059	      5.16696701	     91.97289980	      1.60522992	     23.37745804	      2.14689059	      0.00000000	      0.00000000	    -56.22906868	      1.00960148	    -14.26527113	     31.19996422	     -9.98386934	      9.01259559	     98.05340956	     52.23084683	      0.00000000	      0.00000000	     35.58432784	    -29.55467737	     12.16330389	    112.69414710	     51.52780575	      0.00000000	      0.00000000
      7.56000000	    -32.34713861	      0.88010982	     13.77975556	      0.40342254	      1.07432158	     -0.23411532	      0.00000000	      0.50000000	      0.00000000	      0.25000000	     39.94637804	     -9.73698394	     -1.37772332	     49.94274122	      0.87166527	    -18.22417337	     -8.53385665	      0.00000000	      0.00000000	     80.20574952	      5.35537031	      5.50852631	     89.35524317	      1.55954320	     23.51586209	      2.13906579	      0.00000000	      0.00000000	    -56.54489564	      1.51092431	    -13.59510995	     31.27740661	     -9.97139659	      9.10660057	     97.99505406	     52.23255731	      0.00000000	      0.00000000	     35.40333299	    -29.54516183	     12.10687799	    112.70138652	     51.52410853	      0.00000000	      0.00000000
      7.56500000	    -32.16401803	      0.76116121	     13.32447383	      0.40340840	      1.07500715	     -0.23442811	      0.00000000	      0.50000000	      0.00000000	      0.25000000	     40.97487271	     -9.47912863	     -1.05250775	     52.82382768	      0.92194972	    -18.43028863	     -8.70269556	      0.00000000	      0.00000000	     78.99926295	      4.77216029	      5.22684190	     86.91244847	      1.51690839	     23.54336590	      2.23904780	      0.00000000	      0.00000000	    -56.78573292	      1.62688158	    -13.08345692	     32.01169204	    -10.36872593	      9.22259570	     98.27493672	     52.29044864	      0.00000000	      0.00000000	     35.29691265	    -29.13370607	     11.75108438	    112.74435874	     51.48672488	      0.00000000	      0.00000000
      7.57000000	    -31.91326430	      0.42323217	     12.87704519	      0.40372853	      1.07597698	     -0.23470680	      0.00000000	      0.50000000	      0.00000000	      0.25000000	     41.79914607	     -8.98462844	     -0.89082418	     55.33676508	      0.96580875	    -18.75294183	     -8.66725777	      0.00000000	      0.00000000	     77.68657195	      4.11517731	      5.21427970	     84.35959555	      1.47235270	     23.30320535	      2.46504984	      0.00000000	      0.00000000	    -57.10528376	      1.82564075	    -12.47952838	     32.32529482	    -10.70884688	      9.43396041	     98.37492560	     52.33335502	      0.00000000	      0.00000000	     35.10356611	    -28.84811687	     11.45248012	    112.72420861	     51.44765088	      0.00000000	      0.00000000
      7.57500000	    -31.58730449	     -0.11618952	     12.50016404	      0.40403906	      1.07702008	     -0.23491137	      0.00000000	      0.50000000	      0.00000000	      0.25000000	     42.49480740	     -8.30007218	     -0.84335052	     57.65547710	      1.00627791	    -19.13167003	     -8.62230177	      0.00000000	      0.00000000	     76.30363586	      3.47601105	      5.51727577	     81.75133481	      1.42682996	     23.02828884	      2.57956280	      0.00000000	      0.00000000	    -57.40427037	      2.20896197	    -11.69904742	     32.44238613	    -10.78715495	      9.58196340	     98.33454396	     52.34367942	      0.00000000	      0.00000000	     34.90766000	    -28.80061252	     11.30087417	    112.69313505	     51.42695195	      0.00000000	      0.00000000
